Coordinates
version=1
nRows=4
nColumns=114
inDegrees=yes

Units are S.I. units (second, meters, Newtons, ...)
If the header above contains a line with 'inDegrees', this indicates whether rotational values are in degrees (yes) or radians (no).

endheader 
time	pelvis_tilt	pelvis_list	pelvis_rotation	pelvis_tx	pelvis_ty	pelvis_tz	hip_flexion_l	hip_adduction_l	hip_rotation_l	hip_flexion_r	hip_adduction_r	hip_rotation_r	knee_angle_l	knee_angle_r	ankle_angle_l	ankle_angle_r	subtalar_angle_l	subtalar_angle_r	mtp_angle_l	mtp_angle_r	lumbar_extension	lumbar_bending	lumbar_rotation	arm_flex_l	arm_add_l	arm_rot_l	arm_flex_r	arm_add_r	arm_rot_r	elbow_flex_l	elbow_flex_r	pro_sup_l	pro_sup_r	addbrev_l/activation	addlong_l/activation	addmagDist_l/activation	addmagIsch_l/activation	addmagMid_l/activation	addmagProx_l/activation	bflh_l/activation	bfsh_l/activation	edl_l/activation	ehl_l/activation	fdl_l/activation	fhl_l/activation	gaslat_l/activation	gasmed_l/activation	glmax1_l/activation	glmax2_l/activation	glmax3_l/activation	glmed1_l/activation	glmed2_l/activation	glmed3_l/activation	glmin1_l/activation	glmin2_l/activation	glmin3_l/activation	grac_l/activation	iliacus_l/activation	perbrev_l/activation	perlong_l/activation	piri_l/activation	psoas_l/activation	recfem_l/activation	sart_l/activation	semimem_l/activation	semiten_l/activation	soleus_l/activation	tfl_l/activation	tibant_l/activation	tibpost_l/activation	vasint_l/activation	vaslat_l/activation	vasmed_l/activation	addbrev_r/activation	addlong_r/activation	addmagDist_r/activation	addmagIsch_r/activation	addmagMid_r/activation	addmagProx_r/activation	bflh_r/activation	bfsh_r/activation	edl_r/activation	ehl_r/activation	fdl_r/activation	fhl_r/activation	gaslat_r/activation	gasmed_r/activation	glmax1_r/activation	glmax2_r/activation	glmax3_r/activation	glmed1_r/activation	glmed2_r/activation	glmed3_r/activation	glmin1_r/activation	glmin2_r/activation	glmin3_r/activation	grac_r/activation	iliacus_r/activation	perbrev_r/activation	perlong_r/activation	piri_r/activation	psoas_r/activation	recfem_r/activation	sart_r/activation	semimem_r/activation	semiten_r/activation	soleus_r/activation	tfl_r/activation	tibant_r/activation	tibpost_r/activation	vasint_r/activation	vaslat_r/activation	vasmed_r/activation	
          4.36000000	         11.96489732	         -2.66235770	        -53.92650394	         -2.72324456	          1.07066800	         -0.04433226	         11.32109735	        -16.99753123	        -13.66642389	         20.32147811	          0.79936351	          5.45300032	         34.60856659	         44.89004772	         -6.16881853	          4.65556788	        -26.76140637	        -34.89013394	         -0.17484274	         -0.09204739	         -8.53553392	          5.32602173	        -30.62604718	         92.49717346	        -37.97775124	        -97.76011788	        -20.20896284	        -31.21414577	       -131.44276639	          8.38511848	        132.43891048	        119.61473669	         83.00788348	          0.05373423	          0.17974077	          0.01018778	          0.01011695	          0.01048407	          0.07906735	          0.01233382	          0.05154162	          0.09565450	          0.02314975	          0.01478857	          0.01354322	          0.04363051	          0.03352887	          0.01028726	          0.01559236	          0.01012942	          0.10105192	          0.02654763	          0.01734918	          0.06880649	          0.03567522	          0.02316777	          0.01966639	          0.16503254	          0.03802927	          0.05318655	          0.02734763	          0.23905306	          0.18617032	          0.15444133	          0.01124299	          0.01018742	          0.01028068	          0.08605671	          0.14013860	          0.01505450	          0.01189169	          0.01168234	          0.01179219	          0.01011593	          0.01007252	          0.01015785	          0.01016776	          0.01014312	          0.01023973	          0.19128705	          0.15043505	          0.09323064	          0.07055690	          0.01318892	          0.01078862	          0.02006753	          0.02418675	          0.13829487	          0.18431604	          0.01021839	          0.21146264	          0.18217479	          0.21710719	          0.07152319	          0.09653698	          0.10596841	          0.01153800	          0.05247111	          0.05369236	          0.08626792	          0.11916983	          0.02115106	          0.01006669	          0.15599581	          0.33906095	          0.15882965	          0.01002464	          0.05751202	          0.15391930	          0.01106087	          0.01005776	          0.01002017	          0.01004323	
          4.37000000	         11.76001480	         -2.80394707	        -53.55271510	         -2.69999931	          1.05817785	         -0.04425458	         12.17461286	        -18.55379696	        -13.72300382	         19.95969208	          0.03860769	          4.69597307	         32.28542147	         46.89913434	         -7.14994691	          5.60832818	        -25.07315126	        -34.76694634	         -0.11916585	         -0.15341313	         -8.64649760	          6.12619265	        -28.51240082	         93.37838769	        -37.03553276	        -93.15698560	        -23.75373590	        -34.18755493	       -150.10100461	          7.91752859	        124.15855223	        119.62502511	         87.59659293	          0.06050794	          0.15419739	          0.01020583	          0.01011512	          0.01064389	          0.12450439	          0.23417953	          0.14368223	          0.12229205	          0.05343472	          0.01355486	          0.01178673	          0.03680502	          0.08160304	          0.01026771	          0.01301367	          0.01015820	          0.08421255	          0.02213636	          0.01452936	          0.05734697	          0.02975277	          0.01977754	          0.08995632	          0.13758869	          0.04566266	          0.06393228	          0.03001990	          0.22770150	          0.15514761	          0.20481916	          0.01007581	          0.01039481	          0.01011640	          0.07172637	          0.17019044	          0.01275823	          0.01019488	          0.01005362	          0.01012257	          0.01014865	          0.01009031	          0.01021535	          0.01026321	          0.01018668	          0.01032537	          0.15951530	          0.12552743	          0.26891612	          0.05928060	          0.01340709	          0.01353319	          0.01689912	          0.03454812	          0.11534209	          0.15367872	          0.01089035	          0.17624730	          0.15185597	          0.18096635	          0.05967414	          0.08051742	          0.08838302	          0.01336293	          0.04376479	          0.04512050	          0.12856833	          0.09933045	          0.01767799	          0.01005751	          0.13005814	          0.28291355	          0.13397294	          0.01859799	          0.04793539	          0.12827997	          0.01225309	          0.01007126	          0.01002515	          0.01005359	
          4.38000000	         11.58836634	         -2.92305686	        -53.32510018	         -2.67652223	          1.04521271	         -0.04434884	         12.95308292	        -19.85231104	        -13.57496276	         19.45882749	         -0.91877036	          3.79293853	         29.83854274	         48.75459803	         -8.30304753	          5.68235866	        -23.21185136	        -34.44525593	         -0.07089336	         -0.16879635	         -8.64524834	          6.72729503	        -26.48841098	         93.47808887	        -35.38206227	        -88.02121803	        -25.30656571	        -38.24437336	       -161.58150461	          7.80918969	        112.97537817	        119.72463454	         94.66482752	          0.06230101	          0.12982971	          0.01024917	          0.01012474	          0.01129008	          0.16338807	          0.40132861	          0.14973025	          0.14720311	          0.04591803	          0.01250097	          0.01100536	          0.03752206	          0.18684778	          0.01026787	          0.01088418	          0.01024535	          0.07017948	          0.01846005	          0.01221711	          0.04779661	          0.02481547	          0.01692680	          0.10887239	          0.11471515	          0.06106619	          0.05807519	          0.03012726	          0.21506681	          0.12933213	          0.20359065	          0.01014786	          0.01093665	          0.01011933	          0.05980000	          0.19481265	          0.01105205	          0.01016876	          0.01005541	          0.01011493	          0.01031197	          0.01014639	          0.01789667	          0.01771740	          0.01122574	          0.01077174	          0.13298227	          0.10474508	          0.30702592	          0.04941431	          0.01198561	          0.01197929	          0.01410614	          0.02880315	          0.09617049	          0.12810428	          0.01768224	          0.14689741	          0.12658193	          0.15083844	          0.04979214	          0.06715669	          0.07372065	          0.02927057	          0.03651880	          0.05632089	          0.18098700	          0.08278133	          0.01480715	          0.01005032	          0.10843563	          0.23582673	          0.11175689	          0.01560241	          0.04001388	          0.10690530	          0.04986958	          0.01011355	          0.01004030	          0.01008589	
          4.39000000	         11.46124272	         -2.96945865	        -53.15532230	         -2.65260124	          1.03170026	         -0.04472744	         13.72635078	        -20.85012690	        -13.24252476	         18.85135671	         -2.13489913	          2.75470197	         27.40207467	         50.46034183	         -9.54542254	          5.41722645	        -21.41764466	        -33.93238355	         -0.02533537	         -0.08182919	         -8.45734542	          7.09181276	        -24.96355985	         92.92312193	        -33.47232401	        -83.50896715	        -23.94616615	        -44.04597514	       -167.23319557	          8.22438770	        100.74670313	        119.93591019	        102.39619610	          0.07446576	          0.10894204	          0.01029684	          0.01013353	          0.01243645	          0.18689689	          0.58222061	          0.19479170	          0.16706471	          0.03917810	          0.01177515	          0.01047201	          0.04178046	          0.15953001	          0.01022714	          0.01010659	          0.01026492	          0.05848503	          0.01539677	          0.01045970	          0.03983738	          0.02069969	          0.01450347	          0.14696071	          0.09565261	          0.06084069	          0.04890009	          0.02713121	          0.24235188	          0.10778024	          0.21127842	          0.02321362	          0.05652034	          0.01018984	          0.04984758	          0.26899528	          0.01022279	          0.01012717	          0.01004076	          0.01008558	          0.01716159	          0.01720369	          0.01538216	          0.01491145	          0.01707127	          0.01709577	          0.11083752	          0.08745420	          0.25590432	          0.09886163	          0.01005910	          0.01003179	          0.01177235	          0.02404716	          0.08018293	          0.10678006	          0.01482526	          0.12243835	          0.10552000	          0.12573192	          0.04155593	          0.05602421	          0.06151076	          0.02486109	          0.03051138	          0.27941465	          0.15084090	          0.08552626	          0.01256098	          0.01006542	          0.09042699	          0.19655040	          0.09318002	          0.01606302	          0.03335949	          0.17496158	          0.61244378	          0.01037863	          0.01014005	          0.01027313	
